<mxfile host="app.diagrams.net" modified="2022-11-21T06:10:10.780Z" agent="5.0 (Macintosh; Intel Mac OS X 10_15_7) AppleWebKit/537.36 (KHTML, like Gecko) Chrome/107.0.0.0 Safari/537.36" etag="vtFwdLHjuK2HEFiHY-En" version="20.5.3" type="github">
  <diagram id="YjvE4-813Z_ukvML9R5E" name="Page-1">
    <mxGraphModel dx="874" dy="709" grid="1" gridSize="10" guides="1" tooltips="1" connect="1" arrows="1" fold="1" page="1" pageScale="1" pageWidth="850" pageHeight="1100" math="0" shadow="0">
      <root>
        <mxCell id="0" />
        <mxCell id="1" parent="0" />
        <mxCell id="a6XsnApybLkVwkPyrAR7-2" value="" style="edgeStyle=orthogonalEdgeStyle;rounded=0;orthogonalLoop=1;jettySize=auto;html=1;" edge="1" parent="1" source="RC1kvjySYHvT6l8gBb4o-1" target="a6XsnApybLkVwkPyrAR7-1">
          <mxGeometry relative="1" as="geometry" />
        </mxCell>
        <mxCell id="RC1kvjySYHvT6l8gBb4o-1" value="start" style="rounded=1;whiteSpace=wrap;html=1;" parent="1" vertex="1">
          <mxGeometry x="390" y="340" width="120" height="60" as="geometry" />
        </mxCell>
        <mxCell id="a6XsnApybLkVwkPyrAR7-1" value="patch&lt;br&gt;" style="rounded=1;whiteSpace=wrap;html=1;" vertex="1" parent="1">
          <mxGeometry x="390" y="460" width="120" height="60" as="geometry" />
        </mxCell>
      </root>
    </mxGraphModel>
  </diagram>
</mxfile>
